<svg width="60" height="59" viewBox="0 0 60 59" fill="none" xmlns="http://www.w3.org/2000/svg">
<g clip-path="url(#clip0_394_2)">
<path d="M0.710195 1.2H7.6902V13.1C7.6902 13.4 7.8902 13.6 8.0902 13.7C8.2902 13.8 8.6002 13.7 8.8002 13.6L13.4502 9L18.1002 13.6C18.2002 13.7 18.4002 13.8 18.5002 13.8H18.7002C18.9002 13.7 19.1002 13.5 19.1002 13.2V1.2H24.1602V13.1C24.1602 13.4 24.3602 13.6 24.5602 13.7C24.7602 13.8 25.0702 13.7 25.2702 13.6L29.9202 9L34.5702 13.6C34.6702 13.7 34.8702 13.8 34.9702 13.8H35.1702C35.3702 13.7 35.5702 13.5 35.5702 13.2V1.2H40.6302V13.1C40.6302 13.4 40.8302 13.6 41.0302 13.7C41.2302 13.8 41.5402 13.7 41.7402 13.6L46.3902 9L51.0402 13.6C51.1402 13.7 51.3402 13.8 51.4402 13.8H51.6402C51.8402 13.7 52.0402 13.5 52.0402 13.2V1.2H59.0202C59.3202 1.2 59.6302 0.9 59.6302 0.6C59.6302 0.3 59.3302 0 59.0202 0H0.810195C0.510195 0 0.200195 0.3 0.200195 0.6C0.200195 0.9 0.300195 1.2 0.710195 1.2Z" fill="#E63946"/>
<path d="M58.87 22.4004H0.61C0.31 22.4004 0 22.7004 0 23.0004C0 23.3004 0.3 23.6004 0.61 23.6004H7.59V35.5004C7.59 35.8004 7.79 36.0004 7.99 36.1004C8.19 36.2004 8.5 36.1004 8.7 36.0004L13.35 31.4004L18 36.0004C18.1 36.1004 18.3 36.2004 18.4 36.2004H18.6C18.8 36.1004 19 35.9004 19 35.6004V23.7004H24.06V35.6004C24.06 35.9004 24.26 36.1004 24.46 36.2004C24.66 36.3004 24.97 36.2004 25.17 36.1004L29.82 31.5004L34.47 36.1004C34.57 36.2004 34.77 36.3004 34.87 36.3004H35.07C35.27 36.2004 35.47 36.0004 35.47 35.7004V23.7004H40.53V35.6004C40.53 35.9004 40.73 36.1004 40.93 36.2004C41.13 36.3004 41.44 36.2004 41.64 36.1004L46.29 31.5004L50.94 36.1004C51.04 36.2004 51.24 36.3004 51.34 36.3004H51.54C51.74 36.2004 51.94 36.0004 51.94 35.7004V23.7004H58.92C59.22 23.7004 59.53 23.4004 59.53 23.1004C59.43 22.7004 59.13 22.4004 58.82 22.4004H58.87Z" fill="#F1FAEE"/>
<path d="M58.87 44.9004H0.61C0.31 44.9004 0 45.2004 0 45.5004C0 45.8004 0.3 46.1004 0.61 46.1004H7.59V58.0004C7.59 58.3004 7.79 58.5004 7.99 58.6004C8.19 58.7004 8.5 58.6004 8.7 58.5004L13.35 53.9004L18 58.5004C18.1 58.6004 18.3 58.7004 18.4 58.7004H18.6C18.8 58.6004 19 58.4004 19 58.1004V46.2004H24.06V58.1004C24.06 58.4004 24.26 58.6004 24.46 58.7004C24.66 58.8004 24.97 58.7004 25.17 58.6004L29.82 54.0004L34.47 58.6004C34.57 58.7004 34.77 58.8004 34.87 58.8004H35.07C35.27 58.7004 35.47 58.5004 35.47 58.2004V46.2004H40.53V58.1004C40.53 58.4004 40.73 58.6004 40.93 58.7004C41.13 58.8004 41.44 58.7004 41.64 58.6004L46.29 54.0004L50.94 58.6004C51.04 58.7004 51.24 58.8004 51.34 58.8004H51.54C51.74 58.7004 51.94 58.5004 51.94 58.2004V46.2004H58.92C59.22 46.2004 59.53 45.9004 59.53 45.6004C59.43 45.2004 59.13 44.9004 58.82 44.9004H58.87Z" fill="#A8DADC"/>
<path d="M13.3503 16.7998H10.8203V19.2998H13.3503V16.7998Z" fill="#FCF7F7"/>
<path d="M20.9402 16.7998H18.4102V19.2998H20.9402V16.7998Z" fill="#FCF7F7"/>
<path d="M28.53 16.7998H26V19.2998H28.53V16.7998Z" fill="#FCF7F7"/>
<path d="M36.1101 16.7998H33.5801V19.2998H36.1101V16.7998Z" fill="#FCF7F7"/>
<path d="M43.6999 16.7998H41.1699V19.2998H43.6999V16.7998Z" fill="#FCF7F7"/>
<path d="M51.2898 16.7998H48.7598V19.2998H51.2898V16.7998Z" fill="#FCF7F7"/>
<path d="M13.3503 39.2998H10.8203V41.7998H13.3503V39.2998Z" fill="#FCF7F7"/>
<path d="M20.9402 39.2998H18.4102V41.7998H20.9402V39.2998Z" fill="#FCF7F7"/>
<path d="M28.53 39.2998H26V41.7998H28.53V39.2998Z" fill="#FCF7F7"/>
<path d="M36.1101 39.2998H33.5801V41.7998H36.1101V39.2998Z" fill="#FCF7F7"/>
<path d="M43.6999 39.2998H41.1699V41.7998H43.6999V39.2998Z" fill="#FCF7F7"/>
<path d="M51.2898 39.2998H48.7598V41.7998H51.2898V39.2998Z" fill="#FCF7F7"/>
</g>
<defs>
<clipPath id="clip0_394_2">
<rect width="59.68" height="58.8" fill="white"/>
</clipPath>
</defs>
</svg>
